<svg id="svg" version="1.1" xmlns="http://www.w3.org/2000/svg" xmlns:xlink="http://www.w3.org/1999/xlink" width="400" height="400" viewBox="0, 0, 400,400"><g id="svgg"><path id="path0" d="M257.005 170.222 C 257.009 170.804,356.069 298.046,356.698 298.278 C 357.256 298.483,357.007 297.436,356.227 296.297 C 354.680 294.035,257.618 169.830,257.314 169.722 C 257.141 169.661,257.002 169.886,257.005 170.222 M256.183 175.712 C 255.890 176.982,253.680 189.708,253.499 191.167 C 253.408 191.900,252.814 195.425,252.178 199.000 C 251.542 202.575,250.960 205.957,250.884 206.515 C 250.240 211.252,247.498 226.856,247.296 226.938 C 247.154 226.996,247.104 227.221,247.185 227.438 C 247.267 227.656,247.042 229.558,246.686 231.667 L 246.039 235.500 246.936 236.742 C 251.348 242.850,345.885 363.466,346.046 363.193 C 346.163 362.995,346.366 361.896,346.496 360.750 C 346.626 359.604,346.863 358.667,347.022 358.667 C 347.182 358.667,347.226 358.442,347.121 358.167 C 347.015 357.892,347.033 357.404,347.161 357.083 C 347.289 356.762,347.454 355.684,347.529 354.687 C 347.603 353.690,347.777 352.790,347.916 352.687 C 348.054 352.584,348.190 352.125,348.219 351.667 C 348.318 350.102,348.682 347.501,348.897 346.833 C 349.177 345.961,349.328 344.753,349.321 343.442 C 349.318 342.860,349.472 342.287,349.663 342.169 C 349.854 342.051,349.941 341.841,349.856 341.704 C 349.771 341.566,349.922 340.264,350.192 338.810 C 350.461 337.356,350.759 335.567,350.853 334.833 C 350.947 334.100,351.177 332.675,351.365 331.667 C 351.552 330.658,351.774 329.421,351.857 328.917 C 352.510 324.962,352.545 324.755,352.806 323.333 C 353.414 320.017,353.717 318.167,353.811 317.198 C 353.868 316.608,353.999 315.835,354.102 315.480 C 354.205 315.124,354.391 314.083,354.516 313.167 C 354.897 310.359,355.679 305.667,356.337 302.230 C 356.541 301.165,356.641 300.040,356.559 299.730 C 356.478 299.420,356.383 299.617,356.349 300.167 C 356.314 300.717,356.180 301.437,356.050 301.767 C 355.848 302.277,311.093 245.338,257.766 176.727 C 256.463 175.050,256.352 174.979,256.183 175.712 " stroke="none" fill="#acacac" fill-rule="evenodd"></path><path id="path1" d="M260.195 152.750 C 259.119 159.212,258.148 164.575,258.036 164.667 C 257.925 164.758,257.827 165.283,257.820 165.833 C 257.813 166.383,257.718 167.448,257.609 168.198 L 257.411 169.563 306.576 232.532 C 333.617 267.164,356.002 295.914,356.319 296.420 L 356.897 297.340 357.519 293.170 C 357.862 290.876,358.269 289.000,358.424 289.000 C 358.579 289.000,358.619 288.860,358.513 288.688 C 358.322 288.379,358.871 283.958,359.219 283.000 C 359.319 282.725,359.465 281.754,359.542 280.842 C 359.619 279.930,359.817 279.050,359.982 278.885 C 360.146 278.720,360.218 278.416,360.141 278.209 C 360.064 278.003,360.975 272.058,362.166 265.000 C 363.356 257.942,364.399 251.642,364.482 251.000 C 364.565 250.358,364.939 247.971,365.312 245.695 C 365.685 243.419,365.868 241.394,365.718 241.195 C 365.567 240.996,347.926 218.371,326.514 190.917 L 287.583 141.000 274.867 141.000 L 262.151 141.000 260.195 152.750 M256.768 173.009 L 256.442 175.035 306.125 238.698 C 343.528 286.625,355.861 302.213,356.022 301.764 C 356.139 301.435,356.329 300.562,356.443 299.823 L 356.651 298.480 306.979 234.838 C 279.660 199.835,257.260 171.149,257.201 171.090 C 257.143 171.031,256.948 171.895,256.768 173.009 " stroke="none" fill="#a4a4a4" fill-rule="evenodd"></path><path id="path2" d="M8.408 20.657 C 6.039 21.509,4.666 22.398,3.110 24.086 C -0.862 28.396,-0.913 30.590,2.490 51.167 C 4.961 66.113,6.655 76.384,11.834 107.833 C 13.222 116.267,15.484 129.992,16.860 138.333 C 20.049 157.676,26.226 195.176,31.027 224.333 C 32.309 232.125,34.322 244.350,35.500 251.500 C 36.678 258.650,38.778 271.400,40.167 279.833 C 42.905 296.459,46.120 315.959,50.307 341.333 C 51.774 350.225,53.284 359.450,53.662 361.833 C 55.111 370.972,57.829 375.207,64.167 378.205 C 68.134 380.081,61.615 380.000,202.000 379.920 C 274.142 379.878,327.021 379.767,319.510 379.672 L 305.854 379.500 258.895 319.333 L 211.936 259.167 222.385 258.993 C 228.132 258.897,216.162 258.785,195.786 258.743 L 158.738 258.667 158.393 256.750 C 158.086 255.050,154.722 237.434,152.997 228.500 C 152.643 226.667,151.669 221.567,150.833 217.167 C 149.996 212.767,149.098 208.117,148.836 206.833 C 148.575 205.550,147.901 202.025,147.339 199.000 C 146.776 195.975,146.104 192.450,145.845 191.167 C 145.586 189.883,144.910 186.358,144.344 183.333 C 143.777 180.308,143.100 176.783,142.838 175.500 C 142.576 174.217,142.214 172.342,142.033 171.333 C 141.852 170.325,141.014 165.900,140.171 161.500 C 136.807 143.943,136.307 141.249,136.402 141.169 C 136.456 141.123,191.880 141.028,259.567 140.959 L 382.634 140.833 382.981 138.667 C 383.762 133.796,386.105 119.384,388.129 107.000 C 389.313 99.758,390.890 90.083,391.633 85.500 C 392.377 80.917,393.817 72.067,394.833 65.833 C 395.850 59.600,397.065 52.100,397.533 49.167 C 398.001 46.233,398.748 41.739,399.192 39.180 C 401.023 28.633,398.647 23.243,391.037 20.679 L 389.021 20.000 199.594 20.012 C 14.391 20.024,10.127 20.038,8.408 20.657 " stroke="none" fill="#cccccc" fill-rule="evenodd"></path><path id="path3" d="M329.481 140.916 C 371.070 140.984,382.190 141.089,382.423 141.418 C 382.640 141.725,382.682 141.702,382.581 141.333 C 382.460 140.892,376.293 140.833,329.639 140.832 L 276.833 140.830 329.481 140.916 M248.528 219.028 C 248.403 219.972,248.367 220.812,248.449 220.894 C 248.531 220.976,248.704 220.273,248.833 219.333 C 248.963 218.393,248.998 217.554,248.912 217.468 C 248.826 217.381,248.653 218.084,248.528 219.028 M247.500 225.000 C 247.371 225.940,247.335 226.780,247.421 226.866 C 247.507 226.952,247.680 226.250,247.806 225.306 C 247.931 224.361,247.966 223.522,247.884 223.440 C 247.802 223.358,247.629 224.060,247.500 225.000 M246.515 230.848 C 246.388 231.699,246.352 232.463,246.435 232.546 C 246.518 232.629,246.691 232.002,246.818 231.152 C 246.946 230.301,246.982 229.537,246.898 229.454 C 246.815 229.371,246.643 229.998,246.515 230.848 M245.890 234.417 C 245.525 236.991,244.674 242.142,244.361 243.667 C 244.192 244.492,243.959 245.842,243.844 246.667 C 243.728 247.492,243.572 248.392,243.497 248.667 C 243.422 248.942,243.276 249.917,243.173 250.833 C 243.069 251.750,242.916 252.725,242.832 253.000 C 242.748 253.275,242.604 254.025,242.512 254.667 C 242.419 255.308,242.209 256.388,242.044 257.067 C 241.879 257.745,241.827 258.382,241.928 258.483 C 242.029 258.584,242.049 258.670,241.972 258.675 C 241.896 258.679,235.158 258.774,227.000 258.886 C 218.842 258.998,212.127 259.122,212.078 259.161 C 211.975 259.244,304.770 378.215,305.608 379.073 C 306.177 379.657,334.749 380.067,335.659 379.505 C 335.845 379.390,336.261 379.241,336.582 379.175 C 337.751 378.933,339.523 378.039,340.500 377.196 C 341.050 376.722,341.600 376.334,341.722 376.334 C 342.146 376.333,344.659 372.265,344.985 371.052 C 345.490 369.173,347.005 360.119,346.958 359.262 C 346.935 358.843,346.735 359.588,346.513 360.918 C 346.291 362.247,346.047 363.387,345.971 363.451 C 345.895 363.515,323.410 334.827,296.004 299.700 C 246.213 235.882,246.175 235.832,246.267 234.417 C 246.318 233.637,246.299 233.000,246.225 233.000 C 246.151 233.000,246.000 233.637,245.890 234.417 M347.528 354.361 C 347.403 355.305,347.367 356.145,347.449 356.227 C 347.531 356.309,347.704 355.607,347.833 354.667 C 347.963 353.727,347.998 352.887,347.912 352.801 C 347.826 352.715,347.653 353.417,347.528 354.361 " stroke="none" fill="#b4b4b4" fill-rule="evenodd"></path><path id="path4" d="M287.920 141.417 C 288.104 141.646,305.689 164.183,326.998 191.500 C 348.306 218.817,365.779 241.209,365.825 241.260 C 365.872 241.312,366.857 235.537,368.014 228.427 C 369.172 221.317,370.234 215.453,370.374 215.395 C 370.514 215.337,370.557 215.101,370.468 214.870 C 370.379 214.639,372.269 202.387,374.667 187.642 C 377.065 172.897,379.695 156.708,380.510 151.667 C 381.326 146.625,382.073 142.162,382.170 141.750 L 382.346 141.000 334.966 141.000 C 297.105 141.000,287.652 141.084,287.920 141.417 " stroke="none" fill="#999999" fill-rule="evenodd"></path></g></svg>