<svg width="16" height="16" viewBox="0 0 16 16" fill="none" xmlns="http://www.w3.org/2000/svg">
<path fill-rule="evenodd" clip-rule="evenodd" d="M4.23058 5.8461H8.53827C9.43042 5.8461 10.1537 6.56933 10.1537 7.46148V11.7692C10.1537 12.6613 9.43042 13.3846 8.53827 13.3846H4.23058C3.33842 13.3846 2.61519 12.6613 2.61519 11.7692V7.46148C2.61519 6.56933 3.33842 5.8461 4.23058 5.8461ZM8.53827 4.23071C10.3226 4.23071 11.769 5.67718 11.769 7.46148V11.7692C11.769 13.5535 10.3226 15 8.53827 15H4.23058C2.44627 15 0.999804 13.5535 0.999804 11.7692V7.46148C0.999804 5.67718 2.44627 4.23071 4.23058 4.23071H8.53827Z" fill="#7A818F"/>
<path fill-rule="evenodd" clip-rule="evenodd" d="M11.6427 2.67866H7.16627C6.66911 2.67866 6.22243 2.89478 5.91506 3.23821H4C4.46089 1.93424 5.70448 1 7.16627 1H11.6427C13.4969 1 15 2.50312 15 4.35731V8.83373C15 10.2955 14.0658 11.5391 12.7618 12V10.0849C13.1052 9.77757 13.3213 9.33089 13.3213 8.83373V4.35731C13.3213 3.43022 12.5698 2.67866 11.6427 2.67866Z" fill="#7A818F"/>
</svg>
