<svg width="50" height="50" fill="none" version="1.1" viewBox="0 0 50 50" xmlns="http://www.w3.org/2000/svg"><mask id="orangecubeb" x="3" y="0" width="44" height="50" mask-type="alpha" maskUnits="userSpaceOnUse"><path d="m22 1.732c1.8564-1.0718 4.1436-1.0718 6 0l15.651 9.0358c1.8564 1.0718 3 3.0526 3 5.1962v18.072c0 2.1436-1.1436 4.1244-3 5.1962l-15.651 9.0358c-1.8564 1.0718-4.1436 1.0718-6 0l-15.651-9.0358c-1.8564-1.0718-3-3.0526-3-5.1962v-18.072c0-2.1436 1.1436-4.1244 3-5.1962l15.651-9.0358z" fill="#C4C4C4"/></mask><g mask="url(#orangecubeb)"><path d="M25 20.8387V52L5.20617 41.5853C3.2345 40.5478 2 38.5034 2 36.2754V10L25 20.8387Z" fill="#F6936A"/><path d="M25 20.8387V52L44.7938 41.5853C46.7655 40.5478 48 38.5034 48 36.2754V10L25 20.8387Z" fill="#F26740"/><path d="M25 -1L48 12.1579L25 24L2 12.1579L25 -1Z" fill="#FFAC89"/><mask id="orangecubec" x="-6" y="-9" width="62" height="33" mask-type="alpha" maskUnits="userSpaceOnUse"><path d="m25-9 30.36 17.368-30.36 15.632-30.36-15.632 30.36-17.368z" fill="#FFAC89"/></mask><g mask="url(#orangecubec)"><circle cx="25" cy="22.68" r="29.04" fill="url(#orangecubea)"/></g></g><defs><radialGradient id="orangecubea" cx="0" cy="0" r="1" gradientTransform="translate(25 22.68) rotate(90) scale(29.04)" gradientUnits="userSpaceOnUse"><stop stop-color="#FFF0C8" offset="0"/><stop stop-color="#FFE8AD" stop-opacity="0" offset="1"/></radialGradient></defs></svg>
