<svg width="18" height="18" viewBox="0 0 18 18" fill="none" xmlns="http://www.w3.org/2000/svg">
<g>
<path d="M12.1332 9.138L9.20783 15.602C9.15877 15.6941 9.09026 15.7392 9.00195 15.7392H8.88089C8.79275 15.7392 8.72407 15.6941 8.67518 15.602L5.62793 8.82636L6.71352 6.87817C6.81929 6.87817 6.8878 6.92341 6.91923 7.01537L8.91581 11.5719H8.99031L10.9869 7.01537C11.0182 6.92341 11.0867 6.87817 11.1926 6.87817L12.1332 9.138Z" fill="#945DD6"/>
<path d="M12.1332 9.138L11.0201 11.5969C10.499 10.8194 10.258 9.92958 10.258 8.94027C10.258 8.84825 10.2599 8.75623 10.2638 8.66422L10.9869 7.0162C11.0182 6.92424 11.0867 6.87901 11.1926 6.87901L12.1332 9.138ZM6.89762 11.6499L5.62793 8.82636L6.71352 6.87817C6.81929 6.87817 6.8878 6.92341 6.91923 7.01537L7.68138 8.75535L7.69319 8.87691C7.78132 9.91145 7.47168 10.8441 6.89762 11.6494V11.6499Z" fill="#71548F"/>
<path d="M11.8262 12.0711C10.9681 11.2128 10.5762 10.1708 10.5762 8.94016C10.5762 7.70955 10.9681 6.66337 11.8262 5.79712C12.6843 4.93088 13.725 4.5 14.9457 4.5C16.0839 4.5 17.0682 4.88143 17.8984 5.6443C18.0218 5.76071 18.0258 5.87362 17.9121 5.98903L16.9599 6.98449C16.8541 7.08239 16.7522 7.08239 16.6542 6.98449C16.1898 6.56709 15.6405 6.3581 15.0064 6.35755C14.3225 6.35755 13.753 6.60572 13.2978 7.10207C12.8413 7.5978 12.6414 8.19348 12.6414 8.89027C12.6414 9.57991 12.8431 10.1678 13.3036 10.6557C13.7641 11.1436 14.3347 11.3866 15.0182 11.3866C15.653 11.3866 16.1983 11.1899 16.6542 10.7967C16.7678 10.6988 16.8737 10.7028 16.9717 10.8085L17.9239 11.8294C18.0297 11.9372 18.0258 12.0469 17.9121 12.162C17.0971 12.9574 16.1083 13.3551 14.9457 13.3552C13.725 13.3552 12.6852 12.9268 11.8262 12.0699V12.0711Z" fill="#F46737"/>
<path d="M0.000150177 13.0958V4.74097C-0.000985582 4.70952 0.00433042 4.67817 0.0157706 4.64885C0.0272108 4.61954 0.0445329 4.59288 0.0666694 4.57051C0.0852697 4.54857 0.108393 4.53091 0.134456 4.51874C0.160519 4.50657 0.188904 4.50018 0.217668 4.5H3.15865C4.36564 4.58814 5.26498 4.94086 6.09381 5.80295C6.92264 6.66503 7.25574 7.64486 7.3615 8.9069C7.46344 10.1179 6.97552 11.17 6.14869 12.0361C5.32186 12.9022 4.32257 13.3371 3.15865 13.3371H0.217668C0.188879 13.3369 0.160477 13.3304 0.134413 13.3182C0.108348 13.306 0.0852384 13.2882 0.0666694 13.2662C0.0445329 13.2439 0.0272108 13.2172 0.0157706 13.1879C0.00433042 13.1586 -0.000985582 13.1272 0.000150177 13.0958ZM1.88115 6.77097V11.4679H3.03725C3.71353 11.4679 4.27457 11.2217 4.72036 10.7292C5.16615 10.2367 5.38876 9.6293 5.38821 8.9069C5.38821 8.19182 5.16487 7.58633 4.72019 7.09425C4.27551 6.60217 3.71309 6.35555 3.03709 6.35555H1.88115V6.7713V6.77097Z" fill="#13ADC7"/>
</g>
</svg>
