<svg width="19" height="17" viewBox="0 0 19 17" fill="none" xmlns="http://www.w3.org/2000/svg">
<path fill-rule="evenodd" clip-rule="evenodd" d="M9.18017 0C4.11136 0 0 3.90093 0 8.71029C0 12.5578 2.64704 15.8175 6.25153 16.9931C6.70209 17.0465 6.87105 16.7793 6.87105 16.5656C6.87105 16.3518 6.87105 15.8175 6.87105 15.0693C4.33665 15.6037 3.77344 13.8937 3.77344 13.8937C3.3792 12.8784 2.75968 12.6112 2.75968 12.6112C1.91488 12.0768 2.816 12.0768 2.816 12.0768C3.71712 12.1303 4.224 12.9853 4.224 12.9853C5.06881 14.3212 6.36417 13.9472 6.87105 13.7334C6.92737 13.1456 7.20897 12.7715 7.43425 12.5578C5.40673 12.344 3.26656 11.5959 3.26656 8.22936C3.26656 7.26748 3.60448 6.51936 4.224 5.87811C4.16769 5.7178 3.82976 4.80936 4.33665 3.63374C4.33665 3.63374 5.12513 3.41999 6.87105 4.54218C7.60321 4.32843 8.39169 4.27499 9.18017 4.27499C9.96865 4.27499 10.7571 4.38187 11.4893 4.54218C13.2352 3.41999 14.0237 3.63374 14.0237 3.63374C14.5306 4.80936 14.1927 5.7178 14.1363 5.93155C14.6995 6.51936 15.0938 7.32092 15.0938 8.28279C15.0938 11.6493 12.9536 12.344 10.9261 12.5578C11.264 12.825 11.5456 13.3593 11.5456 14.1609C11.5456 15.3365 11.5456 16.245 11.5456 16.5656C11.5456 16.7793 11.7146 17.0465 12.1651 16.9931C15.8259 15.8175 18.4167 12.5578 18.4167 8.71029C18.3603 3.90093 14.249 0 9.18017 0Z" fill="currentColor"/>
</svg>
