<svg width="52" height="52" version="1.1" viewBox="0 0 52 52" xmlns="http://www.w3.org/2000/svg"><style type="text/css">.st0{fill:none;}</style><rect class="st0" x="-1.825" y="-3.1806" width="53.8" height="53.4"/><path d="m25.95 49.01-24.2-17.6c-0.3-0.2-0.6-0.6-0.7-1s-0.1-0.8 0-1.2l2.8-8.5zm-14.7-45.4 5.5 17.1h-12.9l5.5-17.1c0.1-0.4 0.5-0.6 0.9-0.6 0.6-0.1 0.9 0.2 1 0.6zm5.5 17.1h18.4l-9.2 28.3zm34.2 8.6c0.1 0.4 0.1 0.8 0 1.2s-0.4 0.7-0.7 1l-24.3 17.5 22.1-28.3zm-2.9-8.6h-12.8l5.5-17.1c0.1-0.4 0.5-0.6 0.9-0.6 0.5 0 0.8 0.2 0.9 0.6z" fill="currentColor"/></svg>
