<svg width="40" height="40" viewBox="0 0 40 40" fill="none" xmlns="http://www.w3.org/2000/svg">
<g>
<path d="M14.2624 22.6626L13.1284 20.7763C12.6526 19.9848 11.5124 19.9648 11.0091 20.7391L4.5964 30.6047C3.84393 31.7624 2.29547 32.0908 1.13782 31.3384C-0.0198271 30.5859 -0.348288 29.0374 0.404184 27.8798L6.81684 18.0142C9.33328 14.1427 15.0345 14.2427 17.4136 18.2L17.5697 18.4596L14.2624 22.6626Z" fill="#13ADC7"/>
<path d="M14.2624 22.6626L13.1284 20.7763C12.6526 19.9848 11.5124 19.9648 11.0091 20.7391L4.5964 30.6047C3.84393 31.7624 2.29547 32.0908 1.13782 31.3384C-0.0198271 30.5859 -0.348288 29.0374 0.404184 27.8798L6.81684 18.0142C9.33328 14.1427 15.0345 14.2427 17.4136 18.2L17.5697 18.4596L14.2624 22.6626Z" fill="url(#studiopaint0_linear)" fill-opacity="0.5" style="mix-blend-mode:color-burn"/>
<path d="M20.4914 23.3196L21.9753 25.7878C22.4448 26.5687 23.5652 26.6011 24.079 25.8486L35.4356 9.21555C36.2142 8.07528 37.7697 7.78204 38.9099 8.56059C40.0502 9.33914 40.3435 10.8947 39.5649 12.0349L28.2083 28.668C25.6393 32.4304 20.0375 32.2686 17.6902 28.3641L17.0656 27.3252L20.4914 23.3196Z" fill="#F46737"/>
<path d="M20.4914 23.3196L21.9753 25.7878C22.4448 26.5687 23.5652 26.6011 24.079 25.8486L35.4356 9.21555C36.2142 8.07528 37.7697 7.78204 38.9099 8.56059C40.0502 9.33914 40.3435 10.8947 39.5649 12.0349L28.2083 28.668C25.6393 32.4304 20.0375 32.2686 17.6902 28.3641L17.0656 27.3252L20.4914 23.3196Z" fill="url(#studiopaint1_linear)" fill-opacity="0.5" style="mix-blend-mode:color-burn"/>
<path d="M11.0091 20.7391L12.2468 18.9217C13.5442 17.0167 16.226 16.2247 17.4136 18.2L21.9754 25.7878C22.3986 26.4918 23.3509 26.5875 23.9108 26.0481L22.7839 27.6821C21.4972 29.5479 18.858 30.3065 17.6902 28.3641L13.1284 20.7763C12.6526 19.9848 11.5124 19.9648 11.0091 20.7391Z" fill="#945DD6"/>
<path d="M11.0091 20.7391L12.2468 18.9217C13.5442 17.0167 16.226 16.2247 17.4136 18.2L21.9754 25.7878C22.3986 26.4918 23.3509 26.5875 23.9108 26.0481L22.7839 27.6821C21.4972 29.5479 18.858 30.3065 17.6902 28.3641L13.1284 20.7763C12.6526 19.9848 11.5124 19.9648 11.0091 20.7391Z" fill="url(#studiopaint2_linear)" fill-opacity="0.5" style="mix-blend-mode:multiply"/>
</g>
<defs>
<linearGradient id="studiopaint0_linear" x1="11.25" y1="10.625" x2="4.6875" y2="21.25" gradientUnits="userSpaceOnUse">
<stop stop-color="#945DD6"/>
<stop offset="1" stop-color="#945DD6" stop-opacity="0"/>
</linearGradient>
<linearGradient id="studiopaint1_linear" x1="28.125" y1="17.5" x2="18.4375" y2="31.25" gradientUnits="userSpaceOnUse">
<stop stop-color="#945DD6" stop-opacity="0"/>
<stop offset="1" stop-color="#7B61FF"/>
</linearGradient>
<linearGradient id="studiopaint2_linear" x1="12.8125" y1="17.8125" x2="20.9375" y2="29.375" gradientUnits="userSpaceOnUse">
<stop stop-color="#13ADC7"/>
<stop offset="0.495393" stop-color="#7B61FF" stop-opacity="0"/>
<stop offset="1" stop-color="#F46737"/>
</linearGradient>
</defs>
</svg>
