<svg width="24" height="20" viewBox="0 0 24 20" fill="none" xmlns="http://www.w3.org/2000/svg">
<path d="M21.0111 5.52022C21.0111 7.75919 20.4821 9.92096 19.4239 12.0055C18.328 14.2059 16.7787 15.9816 14.8136 17.2941C12.6596 18.761 10.1654 19.4945 7.36901 19.4945C4.68593 19.4945 2.2296 18.761 0 17.2941C0.340108 17.3327 0.718006 17.3327 1.13369 17.3327C3.36329 17.3327 5.36615 16.6379 7.14227 15.2482C6.08415 15.2482 5.13941 14.9393 4.34582 14.2831C3.55224 13.6268 2.98539 12.8548 2.68307 11.8897C2.98539 11.9283 3.28771 11.9283 3.55224 11.9283C3.96793 11.9283 4.4214 11.8897 4.83709 11.7739C3.74119 11.5423 2.83423 10.9632 2.07844 10.0368C1.32264 9.11029 0.982533 8.10662 0.982533 6.94853V6.87132C1.66275 7.25735 2.38076 7.48897 3.13655 7.52757C2.49413 7.06434 1.96507 6.48529 1.58717 5.75184C1.20927 5.01838 0.906955 4.24632 0.906955 3.39706C0.906955 2.54779 1.13369 1.73713 1.58717 0.92647C2.75866 2.47059 4.23246 3.66728 5.97079 4.55515C7.70911 5.44301 9.52302 5.94485 11.4881 6.06066C11.4125 5.67463 11.4125 5.32721 11.4125 4.94118C11.4125 4.05331 11.6392 3.24265 12.0549 2.47059C12.4706 1.69853 13.0753 1.11949 13.7933 0.65625C14.5113 0.193015 15.3049 0 16.174 0C16.892 0 17.5345 0.154412 18.1013 0.424632C18.6681 0.694853 19.235 1.08088 19.6885 1.54412C20.7844 1.3125 21.8047 0.926471 22.7494 0.386029C22.3715 1.54412 21.6913 2.43199 20.6332 3.08824C21.5402 2.97243 22.4471 2.70221 23.3919 2.27757C22.7117 3.28125 21.9181 4.13051 20.9733 4.86397C20.9733 5.05698 21.0111 5.25 21.0111 5.52022Z" fill="currentColor" />
</svg>
