<svg width="59" height="21" viewBox="0 0 59 21" fill="none" xmlns="http://www.w3.org/2000/svg">
<path d="M8.99624 20.8359C7.67261 20.8359 6.45929 20.6615 5.35626 20.3125C4.25324 19.9452 3.30648 19.3667 2.51598 18.577C1.74387 17.7873 1.1372 16.768 0.695993 15.5191C0.254784 14.2703 0.0341797 12.7459 0.0341797 10.9461V10.4227C0.0341797 8.73309 0.263976 7.28222 0.723569 6.0701C1.18316 4.85798 1.8174 3.86624 2.62628 3.09489C3.43517 2.32354 4.38193 1.75421 5.46657 1.3869C6.56959 1.01959 7.74615 0.835938 8.99624 0.835938C10.1176 0.835938 11.1655 0.964496 12.1399 1.22161C13.1326 1.47873 13.9966 1.88277 14.732 2.43373C15.4857 2.9847 16.0924 3.70095 16.5519 4.58249C17.0299 5.46404 17.3149 6.53842 17.4068 7.80563H12.2777C12.1858 7.2914 12.0387 6.85981 11.8365 6.51087C11.6343 6.14356 11.3861 5.84971 11.092 5.62933C10.7978 5.39057 10.4669 5.22529 10.0993 5.13346C9.74997 5.02327 9.3823 4.96817 8.99624 4.96817C8.44473 4.96817 7.92998 5.06918 7.45201 5.2712C6.99241 5.45485 6.58797 5.76707 6.23868 6.20784C5.90778 6.63024 5.64121 7.19039 5.43899 7.88828C5.25515 8.58617 5.16324 9.43098 5.16324 10.4227V11.0012C5.16324 12.0664 5.26435 12.9663 5.46657 13.701C5.68717 14.4172 5.97212 15.0049 6.32141 15.464C6.6707 15.9048 7.07514 16.2262 7.53473 16.4282C7.99433 16.6119 8.4815 16.7037 8.99624 16.7037C9.93381 16.7037 10.6783 16.4833 11.2299 16.0425C11.7998 15.5834 12.149 14.858 12.2777 13.8662H17.4068C17.3333 15.1518 17.0667 16.2354 16.6071 17.1169C16.1659 17.9985 15.5684 18.7147 14.8147 19.2657C14.0793 19.8167 13.2153 20.2207 12.2226 20.4778C11.2299 20.7166 10.1544 20.8359 8.99624 20.8359Z" fill="white"/>
<path d="M20.3011 1.19406H25.375L30.7247 10.9737L36.0192 1.19406H40.9828V20.4778H36.0192V9.43098L32.0208 16.7588H29.2632L25.2647 9.43098V20.4778H20.3011V1.19406Z" fill="white"/>
<path d="M44.8337 1.19406H49.7973V16.4007H58.07V20.4778H44.8337V1.19406Z" fill="white"/>
</svg>
