<svg width="116" height="40" viewBox="0 0 116 40" fill="none" xmlns="http://www.w3.org/2000/svg">
<g clip-path="url(#clip0)">
<path d="M11.5351 31.4286C17.9057 31.4286 22.8298 26.0715 26.0741 22.9762V16.0715C16.9421 24.4048 15.1186 26.4286 11.5351 26.4286C7.95158 26.4286 5.04659 23.5504 5.04659 20H0C0 26.3119 5.16442 31.4286 11.5351 31.4286Z" fill="#8669AC"/>
<path d="M11.5351 31.4286C17.9057 31.4286 22.8298 26.0715 26.0741 22.9762V16.0715C16.9421 24.4048 15.1186 26.4286 11.5351 26.4286C7.95158 26.4286 5.04659 23.5504 5.04659 20H0C0 26.3119 5.16442 31.4286 11.5351 31.4286Z" fill="url(#paint0_linear)"/>
<path d="M11.5351 8.57144C17.9057 8.57144 22.8298 13.9286 26.0741 17.0238V23.9286C16.9421 15.5953 15.1186 13.5714 11.5351 13.5714C7.95158 13.5714 5.04659 16.4496 5.04659 20H0C0 13.6882 5.16442 8.57144 11.5351 8.57144Z" fill="#8669AC"/>
<path d="M11.5351 8.57144C17.9057 8.57144 22.8298 13.9286 26.0741 17.0238V23.9286C16.9421 15.5953 15.1186 13.5714 11.5351 13.5714C7.95158 13.5714 5.04659 16.4496 5.04659 20H0C0 13.6882 5.16442 8.57144 11.5351 8.57144Z" fill="url(#paint1_linear)"/>
<path d="M11.5351 8.57147C5.16443 8.57147 0 13.6882 0 20C0 26.3119 5.16443 31.4286 11.5351 31.4286V26.4286C7.95158 26.4286 5.04659 23.5504 5.04659 20C5.04659 16.4496 7.95158 13.5715 11.5351 13.5715V8.57147Z" fill="#27AFC8"/>
<path d="M11.5351 8.57147C5.16443 8.57147 0 13.6882 0 20C0 26.3119 5.16443 31.4286 11.5351 31.4286V26.4286C7.95158 26.4286 5.04659 23.5504 5.04659 20C5.04659 16.4496 7.95158 13.5715 11.5351 13.5715V8.57147Z" fill="url(#paint2_linear)"/>
<path d="M40.3729 20C40.3729 15.9236 37.0375 12.6191 32.9232 12.6191C29.4386 12.6191 28.1169 14.2858 26.0742 16.0715L26.0742 22.9762C27.5161 21.6667 30.7603 17.6191 32.9232 17.6191C34.2504 17.6191 35.3263 18.6851 35.3263 20L40.3729 20Z" fill="url(#paint3_linear)"/>
<path d="M40.3729 20C40.3729 24.0764 37.0375 27.381 32.9232 27.381C29.4386 27.381 28.1169 25.7143 26.0742 23.9286L26.0742 17.0238C27.5161 18.3334 30.7603 22.381 32.9232 22.381C34.2504 22.381 35.3263 21.315 35.3263 20L40.3729 20Z" fill="url(#paint4_linear)"/>
<path d="M32.9229 27.381C37.0372 27.381 40.3726 24.0764 40.3726 20C40.3726 15.9236 37.0372 12.6191 32.9229 12.6191V17.6191C34.2501 17.6191 35.326 18.6851 35.326 20C35.326 21.315 34.2501 22.381 32.9229 22.381V27.381Z" fill="url(#paint5_linear)"/>
</g>
<path d="M65.7063 30.164C64.3498 30.164 63.1063 29.9867 61.9758 29.632C60.8454 29.2587 59.8751 28.6707 59.065 27.868C58.2737 27.0653 57.6519 26.0293 57.1997 24.76C56.7476 23.4907 56.5215 21.9413 56.5215 20.112V19.58C56.5215 17.8627 56.757 16.388 57.228 15.156C57.699 13.924 58.349 12.916 59.178 12.132C60.007 11.348 60.9773 10.7693 62.0889 10.396C63.2193 10.0227 64.4251 9.836 65.7063 9.836C66.8556 9.836 67.9295 9.96667 68.928 10.228C69.9454 10.4893 70.8309 10.9 71.5845 11.46C72.357 12.02 72.9788 12.748 73.4498 13.644C73.9396 14.54 74.2317 15.632 74.3259 16.92H69.0693C68.9751 16.3973 68.8244 15.9587 68.6172 15.604C68.4099 15.2307 68.1556 14.932 67.8541 14.708C67.5527 14.4653 67.2135 14.2973 66.8367 14.204C66.4787 14.092 66.1019 14.036 65.7063 14.036C65.1411 14.036 64.6135 14.1387 64.1237 14.344C63.6527 14.5307 63.2382 14.848 62.8802 15.296C62.5411 15.7253 62.2679 16.2947 62.0606 17.004C61.8722 17.7133 61.778 18.572 61.778 19.58V20.168C61.778 21.2507 61.8816 22.1653 62.0889 22.912C62.315 23.64 62.607 24.2373 62.965 24.704C63.3229 25.152 63.7374 25.4787 64.2085 25.684C64.6795 25.8707 65.1787 25.964 65.7063 25.964C66.6672 25.964 67.4302 25.74 67.9954 25.292C68.5795 24.8253 68.9374 24.088 69.0693 23.08H74.3259C74.2505 24.3867 73.9773 25.488 73.5063 26.384C73.0541 27.28 72.4418 28.008 71.6693 28.568C70.9157 29.128 70.0302 29.5387 69.0128 29.8C67.9954 30.0427 66.8932 30.164 65.7063 30.164Z" fill="white"/>
<path d="M77.2921 10.2H82.4922L87.9748 20.14L93.4009 10.2H98.4878V29.8H93.4009V18.572L89.303 26.02H86.4769L82.3791 18.572V29.8H77.2921V10.2Z" fill="white"/>
<path d="M102.434 10.2H107.521V25.656H116V29.8H102.434V10.2Z" fill="white"/>
<defs>
<linearGradient id="paint0_linear" x1="6.24816" y1="25.3572" x2="24.2561" y2="21.3585" gradientUnits="userSpaceOnUse">
<stop offset="0.264498" stop-color="#805BB3"/>
<stop offset="0.704109" stop-color="#5C53BC"/>
<stop offset="0.985436" stop-color="#155C9D"/>
</linearGradient>
<linearGradient id="paint1_linear" x1="12.0157" y1="13.4524" x2="26.1657" y2="18.4147" gradientUnits="userSpaceOnUse">
<stop stop-color="#EB6237"/>
<stop offset="0.370218" stop-color="#E95962"/>
<stop offset="1" stop-color="#6E5CDE"/>
</linearGradient>
<linearGradient id="paint2_linear" x1="11.5351" y1="26.4286" x2="11.5351" y2="13.6905" gradientUnits="userSpaceOnUse">
<stop stop-color="#805BB2"/>
<stop offset="0.251771" stop-color="#884F82"/>
<stop offset="0.554757" stop-color="#AD5464"/>
<stop offset="0.804829" stop-color="#D65A44"/>
<stop offset="1" stop-color="#EB6136"/>
</linearGradient>
<linearGradient id="paint3_linear" x1="27.5161" y1="20.4762" x2="34.2365" y2="18.6594" gradientUnits="userSpaceOnUse">
<stop stop-color="#155C9D"/>
<stop offset="0.201687" stop-color="#1871B2"/>
<stop offset="0.342321" stop-color="#2281B7"/>
<stop offset="0.581426" stop-color="#259ACC"/>
<stop offset="0.755678" stop-color="#09AADD"/>
<stop offset="1" stop-color="#1DB9E8"/>
</linearGradient>
<linearGradient id="paint4_linear" x1="26.0742" y1="22.2024" x2="33.5239" y2="22.1418" gradientUnits="userSpaceOnUse">
<stop stop-color="#6E5CDE"/>
<stop offset="0.203274" stop-color="#5C72E1"/>
<stop offset="0.410033" stop-color="#588FE0"/>
<stop offset="0.759012" stop-color="#36B1E6"/>
<stop offset="1" stop-color="#1DB9E8"/>
</linearGradient>
<linearGradient id="paint5_linear" x1="32.9229" y1="18.8096" x2="40.3726" y2="18.8096" gradientUnits="userSpaceOnUse">
<stop stop-color="#23BAE8" stop-opacity="0"/>
<stop offset="0.417914" stop-color="#23D0E8" stop-opacity="0.38"/>
<stop offset="1" stop-color="#21D6EF"/>
</linearGradient>
<clipPath id="clip0">
<rect width="40.3727" height="40" fill="white"/>
</clipPath>
</defs>
</svg>
